<svg width="25" height="41" viewBox="0 0 25 41" fill="none" xmlns="http://www.w3.org/2000/svg">
<path d="M12 41L9.40192 27.5L14.5981 27.5L12 41Z" fill="#313131"/>
<path d="M12.5 1.81622L23.3253 19.9252H1.67468L12.5 1.81622Z" fill="#FFD600"/>
<path d="M24.3882 17.7461L15.0452 1.52063C14.7746 1.05782 14.3875 0.673929 13.9225 0.40715C13.4575 0.140371 12.9307 0 12.3946 0C11.8584 0 11.3317 0.140371 10.8666 0.40715C10.4016 0.673929 10.0145 1.05782 9.74393 1.52063L0.400976 17.7461C0.13839 18.1952 0 18.706 0 19.2263C0 19.7465 0.13839 20.2574 0.400976 20.7065C0.668592 21.1716 1.05513 21.5572 1.52093 21.8236C1.98674 22.09 2.51503 22.2277 3.05162 22.2225H21.7375C22.2737 22.2273 22.8016 22.0894 23.267 21.8231C23.7324 21.5567 24.1186 21.1713 24.386 20.7065C24.6489 20.2576 24.7877 19.7468 24.7881 19.2266C24.7884 18.7063 24.6504 18.1954 24.3882 17.7461ZM22.1659 19.4234C22.1225 19.4974 22.0598 19.5584 21.9846 19.5997C21.9094 19.6411 21.8244 19.6614 21.7386 19.6584H3.05162C2.96582 19.6614 2.88081 19.6411 2.80559 19.5997C2.73037 19.5584 2.66772 19.4974 2.62427 19.4234C2.58741 19.3635 2.5679 19.2945 2.5679 19.2242C2.5679 19.1538 2.58741 19.0848 2.62427 19.0249L11.9672 2.79947C12.0135 2.72826 12.0768 2.66974 12.1514 2.62922C12.2261 2.58871 12.3096 2.56749 12.3946 2.56749C12.4795 2.56749 12.5631 2.58871 12.6377 2.62922C12.7123 2.66974 12.7757 2.72826 12.8219 2.79947L17.4929 10.9122L22.1638 19.0249C22.201 19.0846 22.2209 19.1535 22.2212 19.2238C22.2216 19.2942 22.2025 19.3633 22.1659 19.4234ZM11.1125 12.3935L11.2179 6.94444C11.2179 6.60442 11.353 6.27833 11.5935 6.0379C11.8339 5.79747 12.16 5.66239 12.5 5.66239C12.84 5.66239 13.1661 5.79747 13.4065 6.0379C13.647 6.27833 13.7821 6.60442 13.7821 6.94444L13.6766 12.3935C13.6766 12.7335 13.5415 13.0596 13.3011 13.3C13.0607 13.5405 12.7346 13.6755 12.3946 13.6755C12.0545 13.6755 11.7284 13.5405 11.488 13.3C11.2476 13.0596 11.1125 12.7335 11.1125 12.3935ZM14.104 16.667C14.104 17.0051 14.0037 17.3356 13.8159 17.6167C13.628 17.8978 13.3611 18.1169 13.0487 18.2463C12.7364 18.3757 12.3927 18.4095 12.0611 18.3435C11.7295 18.2776 11.4249 18.1148 11.1858 17.8757C10.9468 17.6367 10.784 17.3321 10.718 17.0005C10.6521 16.6689 10.6859 16.3252 10.8153 16.0128C10.9447 15.7005 11.1638 15.4335 11.4449 15.2457C11.726 15.0578 12.0565 14.9576 12.3946 14.9576C12.8479 14.9576 13.2827 15.1377 13.6033 15.4583C13.9239 15.7788 14.104 16.2136 14.104 16.667Z" fill="black"/>
</svg>
