<svg width="25" height="41" viewBox="0 0 25 41" fill="none" xmlns="http://www.w3.org/2000/svg">
<path d="M13 41L10.4019 27.5L15.5981 27.5L13 41Z" fill="#313131"/>
<path d="M12.5 1.1438L23.3253 19.4036H1.67468L12.5 1.1438Z" fill="white"/>
<path d="M24.283 17.3542L15.1681 1.48705C14.9041 1.03446 14.5265 0.659049 14.0728 0.398161C13.6191 0.137272 13.1052 0 12.5822 0C12.0592 0 11.5452 0.137272 11.0916 0.398161C10.6379 0.659049 10.2603 1.03446 9.99626 1.48705L0.881362 17.3542C0.625186 17.7934 0.490173 18.293 0.490173 18.8018C0.490173 19.3105 0.625186 19.8101 0.881362 20.2493C1.14245 20.7042 1.51955 21.0812 1.97398 21.3417C2.42842 21.6023 2.94382 21.7369 3.4673 21.7319H21.6971C22.2202 21.7366 22.7352 21.6017 23.1892 21.3412C23.6433 21.0807 24.02 20.7039 24.2809 20.2493C24.5374 19.8103 24.6728 19.3108 24.6732 18.8021C24.6735 18.2933 24.5389 17.7936 24.283 17.3542ZM22.1151 18.9945C22.0727 19.067 22.0115 19.1265 21.9382 19.167C21.8648 19.2075 21.7818 19.2273 21.6981 19.2244H3.4673C3.3836 19.2273 3.30067 19.2075 3.22728 19.167C3.15389 19.1265 3.09277 19.067 3.05038 18.9945C3.01443 18.9359 2.99539 18.8685 2.99539 18.7997C2.99539 18.7309 3.01443 18.6634 3.05038 18.6048L12.1653 2.73766C12.2101 2.66756 12.2717 2.60988 12.3446 2.56993C12.4174 2.52997 12.4992 2.50903 12.5822 2.50903C12.6652 2.50903 12.747 2.52997 12.8198 2.56993C12.8927 2.60988 12.9543 2.66756 12.9991 2.73766L22.114 18.6048C22.1501 18.6633 22.1693 18.7307 22.1695 18.7995C22.1697 18.8683 22.1509 18.9358 22.1151 18.9945Z" fill="#FF0000"/>
<path d="M12.0603 8.06977C12.0603 7.79297 12.1707 7.52752 12.3674 7.3318C12.564 7.13608 12.8307 7.02612 13.1088 7.02612C13.3869 7.02612 13.6536 7.13608 13.8502 7.3318C14.0469 7.52752 14.1573 7.79297 14.1573 8.06977C14.1573 8.34656 14.0469 8.61201 13.8502 8.80773C13.6536 9.00345 13.3869 9.11341 13.1088 9.11341C12.8307 9.11341 12.564 9.00345 12.3674 8.80773C12.1707 8.61201 12.0603 8.34656 12.0603 8.06977ZM7.73067 11.3485C7.84208 11.0833 8.1479 10.9572 8.41659 11.0681L8.84256 11.2442L9.34279 10.4158C9.69886 9.82222 10.3411 9.46129 11.0336 9.46129C12.1564 9.46129 13.1525 10.1766 13.5085 11.2377L14.2644 13.4924L15.9966 14.212L16.7437 13.2206C16.8835 13.0358 17.1063 12.9314 17.3379 12.9423C17.5694 12.9531 17.7813 13.0814 17.9015 13.2793L19.9985 16.7581C20.1274 16.9733 20.1318 17.2408 20.0073 17.4582C19.8828 17.6756 19.6512 17.8104 19.4 17.8104H13.8078C13.5653 17.8104 13.3403 17.6865 13.2136 17.4799C13.0869 17.2734 13.0738 17.019 13.1831 16.8038L13.5326 16.108C13.6505 15.8732 13.893 15.7231 14.1573 15.7231H14.8563L15.3478 15.0709L8.01465 12.0313C7.74815 11.9204 7.62145 11.616 7.73286 11.3485H7.73067ZM9.5394 13.3445L11.986 14.3882C12.2437 14.4969 12.4098 14.7491 12.4098 15.0274V17.1147C12.4098 17.4995 12.0974 17.8104 11.7107 17.8104C11.3241 17.8104 11.0117 17.4995 11.0117 17.1147V15.4862L9.68794 14.9208L8.87969 17.3343C8.75736 17.6995 8.36198 17.8952 7.99499 17.7735C7.628 17.6517 7.4314 17.2582 7.55155 16.8951L8.60008 13.7641L8.84037 13.0466L9.5394 13.3445Z" fill="black"/>
</svg>
