<svg width="25" height="41" viewBox="0 0 25 41" fill="none" xmlns="http://www.w3.org/2000/svg">
<path d="M5.03961 23.0771C5.03961 23.0771 4.67503 23.5417 3.72711 23.5417C2.77919 23.5417 2.41461 23.0771 2.41461 23.0771V6.81458H5.03961V23.0771Z" fill="#9E9E9E"/>
<path d="M5.03961 23.0771C5.03961 23.0771 4.67503 23.5416 3.72711 23.5416C2.77919 23.5416 2.41461 23.0771 2.41461 23.0771V16.8125C2.41461 16.8125 2.68128 16.3041 3.65628 16.3041C4.63128 16.3041 5.03961 16.8125 5.03961 16.8125V23.0771Z" fill="#BDBDBD"/>
<path d="M22.5834 23.0771C22.5834 23.0771 22.2188 23.5417 21.2709 23.5417C20.323 23.5417 19.9584 23.0771 19.9584 23.0771V6.81458H22.5834V23.0771Z" fill="#9E9E9E"/>
<path d="M22.5834 23.0771C22.5834 23.0771 22.2188 23.5416 21.2709 23.5416C20.323 23.5416 19.9584 23.0771 19.9584 23.0771V16.8125C19.9584 16.8125 20.225 16.3041 21.2 16.3041C22.175 16.3041 22.5834 16.8125 22.5834 16.8125V23.0771Z" fill="#BDBDBD"/>
<path d="M24.4312 14.7625H0.56875C0.254167 14.7625 0 14.5083 0 14.1938V6.91042C0 6.59584 0.254167 6.34167 0.56875 6.34167H24.4312C24.7458 6.34167 25 6.59584 25 6.91042V14.1938C25 14.5083 24.7458 14.7625 24.4312 14.7625Z" fill="#9E9E9E"/>
<path d="M24.4312 6.7583H0.56875C0.254167 6.7583 0 7.01247 0 7.32705V14.6104C0 14.925 0.254167 15.1791 0.56875 15.1791H24.4312C24.7458 15.1791 25 14.925 25 14.6104V7.32705C25 7.01247 24.7458 6.7583 24.4312 6.7583Z" fill="#FFD600"/>
<path d="M2.79792 6.7583L0 9.55622V13.6812L6.92292 6.7583H2.79792ZM10.6458 6.7583L2.22708 15.1791H6.35208L14.7708 6.7583H10.6458ZM18.4958 6.7583L10.075 15.1791H14.2L22.6187 6.7583H18.4958ZM25 8.10205L17.9229 15.1791H22.0479L25 12.2271V8.10205Z" fill="#212121"/>
<path d="M22.875 7.12291H19.6688C19.3688 7.12291 19.1479 6.92708 19.2188 6.72708L19.4417 5.32916H23.0979L23.3208 6.72708C23.3958 6.92916 23.175 7.12291 22.875 7.12291Z" fill="#E2A610"/>
<path d="M21.2708 5.29583C22.7332 5.29583 23.9188 4.11032 23.9188 2.64792C23.9188 1.18551 22.7332 0 21.2708 0C19.8084 0 18.6229 1.18551 18.6229 2.64792C18.6229 4.11032 19.8084 5.29583 21.2708 5.29583Z" fill="#FFCA28"/>
<path d="M21.2708 4.60421C22.3512 4.60421 23.2271 3.72837 23.2271 2.64796C23.2271 1.56755 22.3512 0.691711 21.2708 0.691711C20.1904 0.691711 19.3146 1.56755 19.3146 2.64796C19.3146 3.72837 20.1904 4.60421 21.2708 4.60421Z" fill="#FF5722"/>
<path d="M23.1 5.35H19.4438C19.4438 5.35 19.4563 4.76666 20.5021 4.76666H22.0521C23.1584 4.76666 23.1 5.35 23.1 5.35Z" fill="#FFCA28"/>
<path d="M21.5021 1.7104L22.0021 1.06457C22.025 1.0354 22.0708 1.05832 22.0625 1.09373L21.8687 1.88748C21.8229 2.0729 21.9646 2.25207 22.1562 2.2479L22.9729 2.2354C23.0104 2.2354 23.0208 2.2854 22.9875 2.30207L22.2458 2.64582C22.0729 2.72707 22.0229 2.9479 22.1437 3.09582L22.6625 3.72707C22.6854 3.75623 22.6542 3.79582 22.6208 3.77915L21.8896 3.41457C21.7187 3.32915 21.5146 3.42707 21.4729 3.61457L21.3021 4.41457C21.2937 4.45207 21.2417 4.45207 21.2354 4.41457L21.0646 3.61457C21.025 3.42707 20.8187 3.32915 20.6479 3.41457L19.9167 3.77915C19.8833 3.79582 19.85 3.75415 19.875 3.72707L20.3937 3.09582C20.5146 2.9479 20.4646 2.72707 20.2917 2.64582L19.55 2.30207C19.5167 2.2854 19.5271 2.2354 19.5646 2.2354L20.3812 2.2479C20.5729 2.24998 20.7146 2.0729 20.6687 1.88748L20.475 1.09373C20.4667 1.05832 20.5125 1.0354 20.5354 1.06457L21.0354 1.7104C21.1583 1.8604 21.3854 1.8604 21.5021 1.7104Z" fill="#FFD5CA"/>
<path d="M5.33124 7.12291H2.12499C1.82499 7.12291 1.60416 6.92708 1.67499 6.72708L1.89791 5.32916H5.55416L5.77708 6.72708C5.85208 6.92916 5.63124 7.12291 5.33124 7.12291Z" fill="#E2A610"/>
<path d="M3.72922 5.29583C5.19162 5.29583 6.37713 4.11032 6.37713 2.64792C6.37713 1.18551 5.19162 0 3.72922 0C2.26681 0 1.0813 1.18551 1.0813 2.64792C1.0813 4.11032 2.26681 5.29583 3.72922 5.29583Z" fill="#FFCA28"/>
<path d="M3.72914 4.60421C4.80955 4.60421 5.68539 3.72837 5.68539 2.64796C5.68539 1.56755 4.80955 0.691711 3.72914 0.691711C2.64873 0.691711 1.77289 1.56755 1.77289 2.64796C1.77289 3.72837 2.64873 4.60421 3.72914 4.60421Z" fill="#FF5722"/>
<path d="M5.55627 5.35H1.90002C1.90002 5.35 1.91252 4.76666 2.95836 4.76666H4.50836C5.61461 4.76666 5.55627 5.35 5.55627 5.35Z" fill="#FFCA28"/>
<path d="M3.95832 1.7104L4.45831 1.06457C4.48123 1.0354 4.52707 1.05832 4.51873 1.09373L4.32498 1.88748C4.27915 2.0729 4.42081 2.25207 4.61248 2.2479L5.42915 2.2354C5.46665 2.2354 5.47706 2.2854 5.44373 2.30207L4.70206 2.64582C4.52915 2.72707 4.47915 2.9479 4.59998 3.09582L5.11873 3.72707C5.14165 3.75623 5.1104 3.79582 5.07707 3.77915L4.34582 3.41457C4.17498 3.32915 3.97082 3.42707 3.92915 3.61457L3.75832 4.41457C3.74998 4.45207 3.6979 4.45207 3.69165 4.41457L3.52082 3.61457C3.48123 3.42707 3.27498 3.32915 3.10415 3.41457L2.3729 3.77915C2.33957 3.79582 2.30623 3.75415 2.33123 3.72707L2.84998 3.09582C2.97082 2.9479 2.92082 2.72707 2.7479 2.64582L2.00623 2.30207C1.9729 2.2854 1.98332 2.2354 2.02082 2.2354L2.83748 2.2479C3.02915 2.24998 3.17082 2.0729 3.12498 1.88748L2.93123 1.09373C2.9229 1.05832 2.96873 1.0354 2.99165 1.06457L3.49165 1.7104C3.61457 1.8604 3.84165 1.8604 3.95832 1.7104Z" fill="#FFD5CA"/>
<path d="M13 41L10.4019 27.5L15.5981 27.5L13 41Z" fill="#313131"/>
</svg>
