<svg width="25" height="41" viewBox="0 0 25 41" fill="none" xmlns="http://www.w3.org/2000/svg">
<path d="M6.5625 11.875L11.7045 22.6563H1.42047L6.5625 11.875Z" fill="#FFD600"/>
<path d="M13 41L10.4019 27.5L15.5981 27.5L13 41Z" fill="#313131"/>
<rect x="0.625" y="1.25" width="11.25" height="10" fill="#FFCA28"/>
<path d="M1.61896 10.4102H11.3327V2.58652C11.3327 2.34095 11.2291 2.11513 11.0219 1.90906C10.8136 1.70406 10.5853 1.60156 10.3371 1.60156H2.61462C2.36638 1.60156 2.13811 1.70406 1.9298 1.90906C1.72257 2.11513 1.61896 2.34095 1.61896 2.58652V10.4102ZM0 25.625V2.58652C0 1.8498 0.249859 1.2348 0.749579 0.741523C1.24822 0.247174 1.8699 0 2.61462 0H10.3371C11.0818 0 11.704 0.247174 12.2037 0.741523C12.7024 1.2348 12.9517 1.8498 12.9517 2.58652V12.1959H14.5383C15.2387 12.1959 15.8345 12.4388 16.3256 12.9246C16.8156 13.4104 17.0606 13.9993 17.0606 14.6911V22.0679C17.0606 22.6445 17.2964 23.1452 17.7681 23.5702C18.2398 23.9951 18.7773 24.2076 19.3806 24.2076C20.012 24.2076 20.5565 23.9951 21.0141 23.5702C21.4717 23.1452 21.7006 22.6445 21.7006 22.0679V7.82363H21.1404C20.7648 7.82363 20.4529 7.70085 20.2046 7.45527C19.9564 7.2097 19.8323 6.90113 19.8323 6.52957V4.00391H20.4863V2.21816H21.7329V4.00391H23.101V2.21816H24.3476V4.00391H25V6.52957C25 6.90113 24.8759 7.2097 24.6276 7.45527C24.3794 7.70085 24.068 7.82363 23.6935 7.82363H23.1317V22.0679C23.1317 23.0449 22.7669 23.882 22.0373 24.5792C21.3088 25.2764 20.4237 25.625 19.3822 25.625C18.3666 25.625 17.4869 25.2764 16.7433 24.5792C16.0007 23.882 15.6295 23.0449 15.6295 22.0679V14.6911C15.6295 14.373 15.528 14.114 15.3251 13.9144C15.1233 13.7136 14.8615 13.6133 14.5399 13.6133H12.9517V25.625H0ZM5.91569 22.6061L8.78125 17.433H7.06515V13.3971L4.17044 18.5717H5.91407V22.6077L5.91569 22.6061Z" fill="#27AE60"/>
</svg>
