<svg width="25" height="39" viewBox="0 0 25 39" fill="none" xmlns="http://www.w3.org/2000/svg">
<path d="M13 39L10.4019 25.5L15.5981 25.5L13 39Z" fill="#313131"/>
<rect x="2" y="4" width="21" height="12" fill="#00B3FF"/>
<path d="M21.25 2.5H19.2675L18.0175 1.25C17.2937 0.52625 16.0238 0 15 0H10C8.97625 0 7.70625 0.52625 6.9825 1.25L5.7325 2.5H3.75C1.6825 2.5 0 4.1825 0 6.25V16.25C0 18.3175 1.6825 20 3.75 20H21.25C23.3175 20 25 18.3175 25 16.25V6.25C25 4.1825 23.3175 2.5 21.25 2.5ZM12.5 15C11.3395 14.9998 10.2266 14.5387 9.40615 13.718C8.58568 12.8973 8.12483 11.7842 8.125 10.6237C8.12517 9.46326 8.58633 8.35037 9.40703 7.5299C10.2277 6.70943 11.3408 6.24858 12.5013 6.24875C13.6617 6.24892 14.7746 6.71008 15.5951 7.53078C16.4156 8.35149 16.8764 9.46451 16.8763 10.625C16.8761 11.7855 16.4149 12.8984 15.5942 13.7189C14.7735 14.5393 13.6605 15.0002 12.5 15ZM20 9.12375C19.7866 9.12375 19.5753 9.08172 19.3781 9.00005C19.181 8.91839 19.0018 8.79869 18.851 8.6478C18.7001 8.4969 18.5804 8.31777 18.4987 8.12061C18.417 7.92346 18.375 7.71215 18.375 7.49875C18.375 7.28535 18.417 7.07404 18.4987 6.87689C18.5804 6.67974 18.7001 6.5006 18.851 6.3497C19.0018 6.19881 19.181 6.07911 19.3781 5.99745C19.5753 5.91578 19.7866 5.87375 20 5.87375C20.431 5.87375 20.8443 6.04496 21.149 6.3497C21.4538 6.65445 21.625 7.06777 21.625 7.49875C21.625 7.92973 21.4538 8.34305 21.149 8.6478C20.8443 8.95255 20.431 9.12375 20 9.12375Z" fill="#95A5A6"/>
</svg>
