<svg width="25" height="25" viewBox="0 0 25 25" fill="none" xmlns="http://www.w3.org/2000/svg">
<rect x="1.9953" y="4" width="20.9509" height="18" fill="white"/>
<path d="M22.3214 0H2.67857C1.19978 0 0 1.19978 0 2.67857V22.3214C0 23.8002 1.19978 25 2.67857 25H22.3214C23.8002 25 25 23.8002 25 22.3214V2.67857C25 1.19978 23.8002 0 22.3214 0ZM13.3929 16.0714H10.7143V18.75C10.7143 19.2411 10.3125 19.6429 9.82143 19.6429H8.03571C7.54464 19.6429 7.14286 19.2411 7.14286 18.75V6.25C7.14286 5.75893 7.54464 5.35714 8.03571 5.35714H13.3929C16.3449 5.35714 18.75 7.76228 18.75 10.7143C18.75 13.6663 16.3449 16.0714 13.3929 16.0714ZM13.3929 8.92857H10.7143V12.5H13.3929C14.375 12.5 15.1786 11.6964 15.1786 10.7143C15.1786 9.73214 14.375 8.92857 13.3929 8.92857Z" fill="#0052CC"/>
</svg>
