<svg width="25" height="22" viewBox="0 0 25 22" fill="none" xmlns="http://www.w3.org/2000/svg">
<path d="M12.0098 1.1438L22.8351 19.4036H1.18451L12.0098 1.1438Z" fill="white"/>
<path d="M23.7928 17.3542L14.6779 1.48705C14.4139 1.03446 14.0363 0.659049 13.5826 0.398161C13.1289 0.137272 12.615 0 12.092 0C11.569 0 11.055 0.137272 10.6014 0.398161C10.1477 0.659049 9.77013 1.03446 9.50609 1.48705L0.391189 17.3542C0.135013 17.7934 0 18.293 0 18.8018C0 19.3105 0.135013 19.8101 0.391189 20.2493C0.652277 20.7042 1.02938 21.0812 1.48381 21.3417C1.93825 21.6023 2.45365 21.7369 2.97713 21.7319H21.2069C21.73 21.7366 22.245 21.6017 22.699 21.3412C23.1531 21.0807 23.5298 20.7039 23.7907 20.2493C24.0472 19.8103 24.1826 19.3108 24.183 18.8021C24.1833 18.2933 24.0487 17.7936 23.7928 17.3542ZM21.6249 18.9945C21.5825 19.067 21.5213 19.1265 21.448 19.167C21.3746 19.2075 21.2916 19.2273 21.2079 19.2244H2.97713C2.89343 19.2273 2.8105 19.2075 2.73711 19.167C2.66372 19.1265 2.6026 19.067 2.56021 18.9945C2.52426 18.9359 2.50522 18.8685 2.50522 18.7997C2.50522 18.7309 2.52426 18.6634 2.56021 18.6048L11.6751 2.73766C11.7199 2.66756 11.7815 2.60988 11.8544 2.56993C11.9272 2.52997 12.009 2.50903 12.092 2.50903C12.175 2.50903 12.2568 2.52997 12.3296 2.56993C12.4025 2.60988 12.4641 2.66756 12.5089 2.73766L21.6238 18.6048C21.6599 18.6633 21.6791 18.7307 21.6793 18.7995C21.6795 18.8683 21.6607 18.9358 21.6249 18.9945Z" fill="#FF0000"/>
<path d="M11.5701 8.06977C11.5701 7.79297 11.6805 7.52752 11.8772 7.3318C12.0738 7.13608 12.3405 7.02612 12.6186 7.02612C12.8967 7.02612 13.1634 7.13608 13.36 7.3318C13.5567 7.52752 13.6671 7.79297 13.6671 8.06977C13.6671 8.34656 13.5567 8.61201 13.36 8.80773C13.1634 9.00345 12.8967 9.11341 12.6186 9.11341C12.3405 9.11341 12.0738 9.00345 11.8772 8.80773C11.6805 8.61201 11.5701 8.34656 11.5701 8.06977ZM7.2405 11.3485C7.35191 11.0833 7.65773 10.9572 7.92642 11.0681L8.35239 11.2442L8.85261 10.4158C9.20868 9.82222 9.85093 9.46129 10.5434 9.46129C11.6662 9.46129 12.6623 10.1766 13.0183 11.2377L13.7742 13.4924L15.5064 14.212L16.2535 13.2206C16.3933 13.0358 16.6161 12.9314 16.8477 12.9423C17.0792 12.9531 17.2911 13.0814 17.4113 13.2793L19.5083 16.7581C19.6372 16.9733 19.6416 17.2408 19.5171 17.4582C19.3926 17.6756 19.161 17.8104 18.9098 17.8104H13.3176C13.0751 17.8104 12.8501 17.6865 12.7234 17.4799C12.5967 17.2734 12.5836 17.019 12.6929 16.8038L13.0424 16.108C13.1603 15.8732 13.4028 15.7231 13.6671 15.7231H14.3661L14.8576 15.0709L7.52448 12.0313C7.25798 11.9204 7.13128 11.616 7.24269 11.3485H7.2405ZM9.04923 13.3445L11.4958 14.3882C11.7535 14.4969 11.9196 14.7491 11.9196 15.0274V17.1147C11.9196 17.4995 11.6072 17.8104 11.2205 17.8104C10.8339 17.8104 10.5215 17.4995 10.5215 17.1147V15.4862L9.19776 14.9208L8.38952 17.3343C8.26719 17.6995 7.87181 17.8952 7.50482 17.7735C7.13783 17.6517 6.94123 17.2582 7.06138 16.8951L8.1099 13.7641L8.3502 13.0466L9.04923 13.3445Z" fill="black"/>
</svg>
